<?xml version="1.0" encoding="UTF-8" standalone="no"?>
<svg
   xmlns:dc="http://purl.org/dc/elements/1.1/"
   xmlns:cc="http://creativecommons.org/ns#"
   xmlns:rdf="http://www.w3.org/1999/02/22-rdf-syntax-ns#"
   xmlns:svg="http://www.w3.org/2000/svg"
   xmlns="http://www.w3.org/2000/svg"
   xmlns:sodipodi="http://sodipodi.sourceforge.net/DTD/sodipodi-0.dtd"
   xmlns:inkscape="http://www.inkscape.org/namespaces/inkscape"
   width="13.001525"
   height="11.001787"
   fill="currentColor"
   class="bi bi-chevron-double-down"
   viewBox="0 0 13.001525 11.001787"
   version="1.1"
   id="svg837"
   sodipodi:docname="chevron-double-down.svg"
   inkscape:version="1.0.2 (e86c8708, 2021-01-15)">
  <metadata
     id="metadata843">
    <rdf:RDF>
      <cc:Work
         rdf:about="">
        <dc:format>image/svg+xml</dc:format>
        <dc:type
           rdf:resource="http://purl.org/dc/dcmitype/StillImage" />
        <dc:title></dc:title>
      </cc:Work>
    </rdf:RDF>
  </metadata>
  <defs
     id="defs841" />
  <sodipodi:namedview
     pagecolor="#ffffff"
     bordercolor="#666666"
     borderopacity="1"
     objecttolerance="10"
     gridtolerance="10"
     guidetolerance="10"
     inkscape:pageopacity="0"
     inkscape:pageshadow="2"
     inkscape:window-width="870"
     inkscape:window-height="480"
     id="namedview839"
     showgrid="false"
     lock-margins="true"
     fit-margin-top="0"
     fit-margin-left="0"
     fit-margin-right="0"
     fit-margin-bottom="0"
     inkscape:zoom="10.175267"
     inkscape:cx="6.5008938"
     inkscape:cy="5.5008938"
     inkscape:window-x="0"
     inkscape:window-y="23"
     inkscape:window-maximized="0"
     inkscape:current-layer="svg837" />
  <path
     fill-rule="evenodd"
     d="m 0.14689378,4.1468938 a 0.5,0.5 0 0 1 0.708,0 l 5.64600002,5.647 5.6460002,-5.647 a 0.5006316,0.5006316 0 0 1 0.708,0.708 L 6.8548938,10.854894 a 0.5,0.5 0 0 1 -0.708,0 L 0.14689378,4.8548938 a 0.5,0.5 0 0 1 0,-0.708 z"
     id="path833" />
  <path
     fill-rule="evenodd"
     d="m 0.14689378,0.14689378 a 0.5,0.5 0 0 1 0.708,0 L 6.5008938,5.7938938 12.146894,0.14689378 a 0.5006316,0.5006316 0 0 1 0.708,0.708 L 6.8548938,6.8548938 a 0.5,0.5 0 0 1 -0.708,0 L 0.14689378,0.85489378 a 0.5,0.5 0 0 1 0,-0.708 z"
     id="path835" />
</svg>
